<svg xmlns="http://www.w3.org/2000/svg" version="1.1" width="1112.7mm" height="562.7mm" viewBox = " 0 0 3942.6410370000003 1993.820537" >
<!-- Front--> 
<g transform="translate(22.5000185, 22.5000185) " > 
<polygon style="stroke:#000000; fill:none; stroke-width:0.90000074" points="0, 0 221.456875, 0 221.456875, 10.62993 442.91375, 10.62993 442.91375, 0 620.07925, 0 620.07925, 10.62993 797.2447500000001, 10.62993 797.2447500000001, 0 974.4102499999999, 0 974.4102499999999, 10.62993 1195.867125, 10.62993 1195.867125, 0 1417.324, 0 1417.324, 177.1655 1406.69407, 177.1655 1406.69407, 354.331 1417.324, 354.331 1417.324, 531.4965 1406.69407, 531.4965 1406.69407, 708.662 1417.324, 708.662 1417.324, 885.8275 1195.867125, 885.8275 1195.867125, 875.19757 974.4102499999999, 875.19757 974.4102499999999, 885.8275 797.2447500000001, 885.8275 797.2447500000001, 875.19757 620.07925, 875.19757 620.07925, 885.8275 442.91375, 885.8275 442.91375, 875.19757 221.456875, 875.19757 221.456875, 885.8275 0, 885.8275000000001 0, 708.662 10.62993, 708.662 10.62993, 531.4965 0, 531.4965 0, 354.331 10.62993, 354.331 10.62993, 177.1655 0, 177.1655 "/> 
</g>
<!-- Back--> 
<g transform="translate(1439.8240185, 22.5000185) " > 
<polygon style="stroke:#000000; fill:none; stroke-width:0.90000074" points="0, 0 221.456875, 0 221.456875, 10.62993 442.91375, 10.62993 442.91375, 0 620.07925, 0 620.07925, 10.62993 797.2447500000001, 10.62993 797.2447500000001, 0 974.4102499999999, 0 974.4102499999999, 10.62993 1195.867125, 10.62993 1195.867125, 0 1417.324, 0 1417.324, 177.1655 1406.69407, 177.1655 1406.69407, 354.331 1417.324, 354.331 1417.324, 531.4965 1406.69407, 531.4965 1406.69407, 708.662 1417.324, 708.662 1417.324, 885.8275 1195.867125, 885.8275 1195.867125, 875.19757 974.4102499999999, 875.19757 974.4102499999999, 885.8275 797.2447500000001, 885.8275 797.2447500000001, 875.19757 620.07925, 875.19757 620.07925, 885.8275 442.91375, 885.8275 442.91375, 875.19757 221.456875, 875.19757 221.456875, 885.8275 0, 885.8275000000001 0, 708.662 10.62993, 708.662 10.62993, 531.4965 0, 531.4965 0, 354.331 10.62993, 354.331 10.62993, 177.1655 0, 177.1655 "/> 
</g>
<!-- Left--> 
<g transform="translate(2857.1480185, 22.5000185) " > 
<polygon style="stroke:#000000; fill:none; stroke-width:0.90000074" points="10.62993, 0 221.456875, 0 221.456875, 10.62993 442.91375, 10.62993 442.91375, 0 620.07925, 0 620.07925, 10.62993 841.5361250000001, 10.62993 841.5361250000001, 0 1052.3630699999999, 0 1052.3630699999999, 177.1655 1062.993, 177.1655 1062.993, 354.331 1052.3630699999999, 354.331 1052.3630699999999, 531.4965 1062.993, 531.4965 1062.993, 708.662 1052.3630699999999, 708.662 1052.3630699999999, 885.8275 841.5361250000001, 885.8275 841.5361250000001, 875.19757 620.07925, 875.19757 620.07925, 885.8275 442.91375, 885.8275 442.91375, 875.19757 221.456875, 875.19757 221.456875, 885.8275 10.62993, 885.8275000000001 10.62993, 708.662 0, 708.662 0, 531.4965 10.62993, 531.4965 10.62993, 354.331 0, 354.331 0, 177.1655 10.62993, 177.1655 "/> 
</g>
<!-- Right--> 
<g transform="translate(2857.1480185, 908.3275185000001) " > 
<polygon style="stroke:#000000; fill:none; stroke-width:0.90000074" points="10.62993, 0 221.456875, 0 221.456875, 10.62993 442.91375, 10.62993 442.91375, 0 620.07925, 0 620.07925, 10.62993 841.5361250000001, 10.62993 841.5361250000001, 0 1052.3630699999999, 0 1052.3630699999999, 177.1655 1062.993, 177.1655 1062.993, 354.331 1052.3630699999999, 354.331 1052.3630699999999, 531.4965 1062.993, 531.4965 1062.993, 708.662 1052.3630699999999, 708.662 1052.3630699999999, 885.8275 841.5361250000001, 885.8275 841.5361250000001, 875.19757 620.07925, 875.19757 620.07925, 885.8275 442.91375, 885.8275 442.91375, 875.19757 221.456875, 875.19757 221.456875, 885.8275 10.62993, 885.8275000000001 10.62993, 708.662 0, 708.662 0, 531.4965 10.62993, 531.4965 10.62993, 354.331 0, 354.331 0, 177.1655 10.62993, 177.1655 "/> 
</g>
<!-- Top--> 
<g transform="translate(22.5000185, 908.3275185000001) " > 
<polygon style="stroke:#000000; fill:none; stroke-width:0.90000074" points="10.62993, 10.62993 221.456875, 10.62993 221.456875, 0 442.91375, 0 442.91375, 10.62993 620.07925, 10.62993 620.07925, 0 797.2447500000001, 0 797.2447500000001, 10.62993 974.4102499999999, 10.62993 974.4102499999999, 0 1195.867125, 0 1195.867125, 10.62993 1406.69407, 10.62993 1406.69407, 221.456875 1417.324, 221.456875 1417.324, 442.91375 1406.69407, 442.91375 1406.69407, 620.07925 1417.324, 620.07925 1417.324, 841.5361250000001 1406.69407, 841.5361250000001 1406.69407, 1052.3630699999999 1195.867125, 1052.3630699999999 1195.867125, 1062.993 974.4102499999999, 1062.993 974.4102499999999, 1052.3630699999999 797.2447500000001, 1052.3630699999999 797.2447500000001, 1062.993 620.07925, 1062.993 620.07925, 1052.3630699999999 442.91375, 1052.3630699999999 442.91375, 1062.993 221.456875, 1062.993 221.456875, 1052.3630699999999 10.62993, 1052.3630699999999 10.62993, 841.5361250000001 0, 841.5361250000001 0, 620.07925 10.62993, 620.07925 10.62993, 442.91375 0, 442.91375 0, 221.456875 10.62993, 221.456875 "/> 
</g>
<!-- Bottom--> 
<g transform="translate(1439.8240185, 908.3275185000001) " > 
<polygon style="stroke:#000000; fill:none; stroke-width:0.90000074" points="10.62993, 10.62993 221.456875, 10.62993 221.456875, 0 442.91375, 0 442.91375, 10.62993 620.07925, 10.62993 620.07925, 0 797.2447500000001, 0 797.2447500000001, 10.62993 974.4102499999999, 10.62993 974.4102499999999, 0 1195.867125, 0 1195.867125, 10.62993 1406.69407, 10.62993 1406.69407, 221.456875 1417.324, 221.456875 1417.324, 442.91375 1406.69407, 442.91375 1406.69407, 620.07925 1417.324, 620.07925 1417.324, 841.5361250000001 1406.69407, 841.5361250000001 1406.69407, 1052.3630699999999 1195.867125, 1052.3630699999999 1195.867125, 1062.993 974.4102499999999, 1062.993 974.4102499999999, 1052.3630699999999 797.2447500000001, 1052.3630699999999 797.2447500000001, 1062.993 620.07925, 1062.993 620.07925, 1052.3630699999999 442.91375, 1052.3630699999999 442.91375, 1062.993 221.456875, 1062.993 221.456875, 1052.3630699999999 10.62993, 1052.3630699999999 10.62993, 841.5361250000001 0, 841.5361250000001 0, 620.07925 10.62993, 620.07925 10.62993, 442.91375 0, 442.91375 0, 221.456875 10.62993, 221.456875 "/> 
</g></svg>