<svg xmlns="http://www.w3.org/2000/svg" version="1.1" width="132.7mm" height="92.7mm" viewBox = " 0 0 470.197237 328.464837" >
<!-- Front--> 
<g transform="translate(22.5000185, 22.5000185) " > 
<polygon style="stroke:#000000; fill:none; stroke-width:0.90000074" points="0, 0 34.5472725, 0 34.5472725, 10.62993 69.094545, 10.62993 69.094545, 0 90.354405, 0 90.354405, 10.62993 124.9016775, 10.62993 124.9016775, 0 159.44895, 0 159.44895, 30.118135 148.81902, 30.118135 148.81902, 60.23627 159.44895, 60.23627 159.44895, 81.49613 148.81902, 81.49613 148.81902, 111.614265 159.44895, 111.614265 159.44895, 141.73239999999998 124.9016775, 141.73239999999998 124.9016775, 131.10246999999998 90.354405, 131.10246999999998 90.354405, 141.73239999999998 69.094545, 141.73239999999998 69.094545, 131.10246999999998 34.5472725, 131.10246999999998 34.5472725, 141.73239999999998 0, 141.73239999999998 0, 111.614265 10.62993, 111.614265 10.62993, 81.49613 0, 81.49613 0, 60.23627 10.62993, 60.23627 10.62993, 30.118135 0, 30.118135 "/> 
</g>
<!-- Back--> 
<g transform="translate(181.9489685, 22.5000185) " > 
<polygon style="stroke:#000000; fill:none; stroke-width:0.90000074" points="0, 0 34.5472725, 0 34.5472725, 10.62993 69.094545, 10.62993 69.094545, 0 90.354405, 0 90.354405, 10.62993 124.9016775, 10.62993 124.9016775, 0 159.44895, 0 159.44895, 30.118135 148.81902, 30.118135 148.81902, 60.23627 159.44895, 60.23627 159.44895, 81.49613 148.81902, 81.49613 148.81902, 111.614265 159.44895, 111.614265 159.44895, 141.73239999999998 124.9016775, 141.73239999999998 124.9016775, 131.10246999999998 90.354405, 131.10246999999998 90.354405, 141.73239999999998 69.094545, 141.73239999999998 69.094545, 131.10246999999998 34.5472725, 131.10246999999998 34.5472725, 141.73239999999998 0, 141.73239999999998 0, 111.614265 10.62993, 111.614265 10.62993, 81.49613 0, 81.49613 0, 60.23627 10.62993, 60.23627 10.62993, 30.118135 0, 30.118135 "/> 
</g>
<!-- Left--> 
<g transform="translate(341.3979185, 22.5000185) " > 
<polygon style="stroke:#000000; fill:none; stroke-width:0.90000074" points="10.62993, 0 21.25986, 0 21.25986, 10.62993 42.51972, 10.62993 42.51972, 0 63.779579999999996, 0 63.779579999999996, 10.62993 85.03944, 10.62993 85.03944, 0 95.66937, 0 95.66937, 30.118135 106.2993, 30.118135 106.2993, 60.23627 95.66937, 60.23627 95.66937, 81.49613 106.2993, 81.49613 106.2993, 111.614265 95.66937, 111.614265 95.66937, 141.73239999999998 85.03944, 141.73239999999998 85.03944, 131.10246999999998 63.779579999999996, 131.10246999999998 63.779579999999996, 141.73239999999998 42.51972, 141.73239999999998 42.51972, 131.10246999999998 21.25986, 131.10246999999998 21.25986, 141.73239999999998 10.62993, 141.73239999999998 10.62993, 111.614265 0, 111.614265 0, 81.49613 10.62993, 81.49613 10.62993, 60.23627 0, 60.23627 0, 30.118135 10.62993, 30.118135 "/> 
</g>
<!-- Right--> 
<g transform="translate(341.3979185, 164.2324185) " > 
<polygon style="stroke:#000000; fill:none; stroke-width:0.90000074" points="10.62993, 0 21.25986, 0 21.25986, 10.62993 42.51972, 10.62993 42.51972, 0 63.779579999999996, 0 63.779579999999996, 10.62993 85.03944, 10.62993 85.03944, 0 95.66937, 0 95.66937, 30.118135 106.2993, 30.118135 106.2993, 60.23627 95.66937, 60.23627 95.66937, 81.49613 106.2993, 81.49613 106.2993, 111.614265 95.66937, 111.614265 95.66937, 141.73239999999998 85.03944, 141.73239999999998 85.03944, 131.10246999999998 63.779579999999996, 131.10246999999998 63.779579999999996, 141.73239999999998 42.51972, 141.73239999999998 42.51972, 131.10246999999998 21.25986, 131.10246999999998 21.25986, 141.73239999999998 10.62993, 141.73239999999998 10.62993, 111.614265 0, 111.614265 0, 81.49613 10.62993, 81.49613 10.62993, 60.23627 0, 60.23627 0, 30.118135 10.62993, 30.118135 "/> 
</g>
<!-- Top--> 
<g transform="translate(22.5000185, 164.2324185) " > 
<polygon style="stroke:#000000; fill:none; stroke-width:0.90000074" points="10.62993, 10.62993 34.5472725, 10.62993 34.5472725, 0 69.094545, 0 69.094545, 10.62993 90.354405, 10.62993 90.354405, 0 124.9016775, 0 124.9016775, 10.62993 148.81902, 10.62993 148.81902, 21.25986 159.44895, 21.25986 159.44895, 42.51972 148.81902, 42.51972 148.81902, 63.779579999999996 159.44895, 63.779579999999996 159.44895, 85.03944 148.81902, 85.03944 148.81902, 95.66937 124.9016775, 95.66937 124.9016775, 106.2993 90.354405, 106.2993 90.354405, 95.66937 69.094545, 95.66937 69.094545, 106.2993 34.5472725, 106.2993 34.5472725, 95.66937 10.62993, 95.66937 10.62993, 85.03944 0, 85.03944 0, 63.779579999999996 10.62993, 63.779579999999996 10.62993, 42.51972 0, 42.51972 0, 21.25986 10.62993, 21.25986 "/> 
</g>
<!-- Bottom--> 
<g transform="translate(181.9489685, 164.2324185) " > 
<polygon style="stroke:#000000; fill:none; stroke-width:0.90000074" points="10.62993, 10.62993 34.5472725, 10.62993 34.5472725, 0 69.094545, 0 69.094545, 10.62993 90.354405, 10.62993 90.354405, 0 124.9016775, 0 124.9016775, 10.62993 148.81902, 10.62993 148.81902, 21.25986 159.44895, 21.25986 159.44895, 42.51972 148.81902, 42.51972 148.81902, 63.779579999999996 159.44895, 63.779579999999996 159.44895, 85.03944 148.81902, 85.03944 148.81902, 95.66937 124.9016775, 95.66937 124.9016775, 106.2993 90.354405, 106.2993 90.354405, 95.66937 69.094545, 95.66937 69.094545, 106.2993 34.5472725, 106.2993 34.5472725, 95.66937 10.62993, 95.66937 10.62993, 85.03944 0, 85.03944 0, 63.779579999999996 10.62993, 63.779579999999996 10.62993, 42.51972 0, 42.51972 0, 21.25986 10.62993, 21.25986 "/> 
</g></svg>